<?xml version="1.0" encoding="UTF-8" standalone="no"?>
<!-- Created with Inkscape (http://www.inkscape.org/) -->

<svg
   width="249.36708"
   height="150.00171"
   viewBox="0 0 65.978373 39.687952"
   version="1.1"
   id="svg1"
   inkscape:version="1.3 (0e150ed6c4, 2023-07-21)"
   sodipodi:docname="AbstrakDAMSMEL.svg"
   xmlns:inkscape="http://www.inkscape.org/namespaces/inkscape"
   xmlns:sodipodi="http://sodipodi.sourceforge.net/DTD/sodipodi-0.dtd"
   xmlns="http://www.w3.org/2000/svg"
   xmlns:svg="http://www.w3.org/2000/svg">
  <sodipodi:namedview
     id="namedview1"
     pagecolor="#ffffff"
     bordercolor="#000000"
     borderopacity="0.25"
     inkscape:showpageshadow="2"
     inkscape:pageopacity="0.0"
     inkscape:pagecheckerboard="0"
     inkscape:deskcolor="#d1d1d1"
     inkscape:document-units="px"
     inkscape:zoom="0.71713664"
     inkscape:cx="396.71658"
     inkscape:cy="561.25984"
     inkscape:window-width="1920"
     inkscape:window-height="1009"
     inkscape:window-x="-8"
     inkscape:window-y="-8"
     inkscape:window-maximized="1"
     inkscape:current-layer="layer1" />
  <defs
     id="defs1" />
  <g
     inkscape:label="Layer 1"
     inkscape:groupmode="layer"
     id="layer1"
     transform="translate(-290.0686,-633.52789)">
    <path
       id="path431-2-1-6-6-2-2-0-3-1-1-7-8-2-9-4-0-8-2-2-9-0-6-2-7-26-1-5-5"
       style="fill:#87decd;fill-opacity:1;fill-rule:nonzero;stroke:none;stroke-width:0.346054;stroke-linecap:round;stroke-linejoin:round;stroke-miterlimit:4;stroke-dasharray:none;stroke-opacity:1"
       d="m 312.04983,633.52795 a 5.7575448,5.7575448 0 0 0 -5.5592,4.2682 h -0.007 l -6.80266,25.38826 -1.32523,4.94645 h -0.007 a 2.6170662,2.6170662 0 0 1 -2.5249,1.94057 2.6170662,2.6170662 0 0 1 -2.61701,-2.61715 2.6170662,2.6170662 0 0 1 0.0921,-0.67657 h -0.006 l 1.32653,-4.95071 6.22091,-23.21644 h 0.006 a 2.6170662,2.6170662 0 0 1 2.5249,-1.9407 1.5702396,1.5702396 0 0 0 1.57018,-1.57031 1.5702396,1.5702396 0 0 0 -1.57018,-1.57018 l 0.008,0.003 a 1.5702396,1.5702396 0 0 0 -0.13217,0.007 5.7575448,5.7575448 0 0 0 -5.42703,4.26161 h -0.007 l -7.54719,28.16728 a 5.7575453,5.7575453 0 0 0 -0.19727,1.49008 5.7575453,5.7575453 0 0 0 5.75764,5.75751 5.7575453,5.7575453 0 0 0 5.55893,-4.26807 h 0.006 l 8.12828,-30.33471 h 0.006 a 2.6170662,2.6170662 0 0 1 2.5249,-1.9407 2.6170662,2.6170662 0 0 1 2.52684,1.94018 l 7.54744,28.16716 h -0.007 a 2.6170662,2.6170662 0 0 1 0.0922,0.67643 2.6170662,2.6170662 0 0 1 -2.61715,2.61715 2.6170662,2.6170662 0 0 1 -2.52477,-1.94057 h -0.007 l -1.32523,-4.94645 -3.79665,-14.16871 a 1.5702396,1.5702396 0 0 0 -1.51605,-1.16427 1.5702396,1.5702396 0 0 0 -1.57019,1.57031 1.5702396,1.5702396 0 0 0 0.0539,0.40618 l 5.12215,19.11503 h 0.006 a 5.7575453,5.7575453 0 0 0 5.5592,4.26806 5.7575453,5.7575453 0 0 0 5.75763,-5.7575 5.7575453,5.7575453 0 0 0 -0.19728,-1.48995 l -7.54722,-28.16784 h -0.006 a 5.7575448,5.7575448 0 0 0 -5.55467,-4.26923 z m 16.41843,0.0899 v 1.61863 c -0.26977,-0.29744 -0.71249,-0.47736 -1.19669,-0.47736 -1.07216,0 -1.91603,0.8993 -1.91603,2.04755 0,1.13441 0.83688,2.01291 1.92288,2.01291 0.51878,0 0.89933,-0.17291 1.26593,-0.58795 v 0.49804 h 0.84388 v -5.11182 z m 26.65873,0 v 5.11182 h 0.91996 v -5.11182 z m -23.25559,1.18972 c -1.13441,0 -1.95065,0.8509 -1.95065,2.0199 0,1.15516 0.8094,1.99211 1.92998,1.99211 0.53954,0 0.90617,-0.17291 1.27279,-0.58795 v 0.49804 h 0.84387 v -3.83218 h -0.84387 v 0.51185 c -0.31819,-0.42195 -0.69875,-0.60177 -1.25212,-0.60177 z m 4.62076,0 c -0.44962,0 -0.72629,0.1246 -0.99606,0.44971 v -0.35979 h -0.84401 v 3.83218 h 0.9201 v -1.88838 c 0,-0.90615 0.21436,-1.18985 0.74698,-1.18985 0.4842,0 0.74711,0.22142 0.74711,0.97539 v 2.10284 h 0.91996 v -1.88838 c 0,-0.91307 0.26289,-1.18985 0.77476,-1.18985 0.42886,0 0.71933,0.20758 0.71933,0.97539 v 2.10284 h 0.91997 v -2.21355 c 0,-1.14825 -0.53948,-1.70855 -1.54938,-1.70855 -0.53954,0 -0.92005,0.17989 -1.23132,0.59492 -0.26285,-0.41503 -0.60174,-0.59492 -1.12744,-0.59492 z m 5.83114,0 c -0.71247,0 -1.27278,0.51192 -1.27278,1.16904 0,0.5603 0.30441,0.87849 1.0653,1.13443 0.61563,0.20751 0.65021,0.2697 0.65021,0.49105 0,0.21443 -0.1799,0.37362 -0.41508,0.37362 -0.26977,0 -0.42193,-0.13843 -0.51186,-0.46354 h -0.92694 c 0.0968,0.89232 0.64328,1.30741 1.40418,1.30741 0.7678,0 1.36967,-0.57419 1.36967,-1.30741 0,-0.5672 -0.26291,-0.87158 -1.06531,-1.12059 -0.62945,-0.2006 -0.65021,-0.21437 -0.65021,-0.41497 0,-0.18676 0.15222,-0.32517 0.35282,-0.32517 0.19368,0 0.31816,0.10378 0.35966,0.30437 h 0.8993 c -0.0346,-0.71938 -0.60875,-1.14824 -1.25896,-1.14824 z m 3.71448,0 c -0.44961,0 -0.72628,0.1246 -0.99605,0.44971 v -0.35979 h -0.84388 v 3.83218 h 0.91997 v -1.88838 c 0,-0.90615 0.21449,-1.18985 0.74711,-1.18985 0.4842,0 0.74698,0.22142 0.74698,0.97539 v 2.10284 h 0.91996 v -1.88838 c 0,-0.91307 0.26289,-1.18985 0.77476,-1.18985 0.42886,0 0.71946,0.20758 0.71946,0.97539 v 2.10284 h 0.91997 v -2.21355 c 0,-1.14825 -0.53961,-1.70855 -1.54952,-1.70855 -0.53953,0 -0.91991,0.17989 -1.23118,0.59492 -0.26285,-0.41503 -0.60187,-0.59492 -1.12758,-0.59492 z m 6.51599,0 c -1.1275,0 -2.01976,0.8924 -2.01976,2.0199 0,1.12058 0.90618,1.99211 2.07518,1.99211 0.77472,0 1.57017,-0.43578 1.82611,-1.22434 h -1.00304 c -0.23518,0.27669 -0.46343,0.38047 -0.84387,0.38047 -0.54646,0 -0.94765,-0.29051 -1.05833,-0.75396 h 2.96751 c 0.0276,-0.13142 0.0345,-0.21447 0.0345,-0.35281 0,-1.18976 -0.83696,-2.06137 -1.9783,-2.06137 z m -25.15082,0.79556 c 0.6433,0 1.13443,0.51875 1.13443,1.18971 0,0.66405 -0.49108,1.18287 -1.11363,1.18287 -0.64329,0 -1.14139,-0.53263 -1.14139,-1.21051 0,-0.65022 0.49114,-1.16207 1.12059,-1.16207 z m 4.56534,0.0483 c 0.65713,0 1.12745,0.49121 1.12745,1.18984 0,0.63638 -0.41499,1.13443 -1.11363,1.13443 -0.67096,0 -1.13442,-0.45662 -1.13442,-1.12758 0,-0.69863 0.46347,-1.19669 1.1206,-1.19669 z m 20.5993,0 c 0.56721,0 0.94074,0.26981 1.05833,0.76093 h -2.1235 c 0.14526,-0.49112 0.51871,-0.76093 1.06517,-0.76093 z"
       inkscape:export-filename="..\Exported Files\AbstrakDAMSMEL\AbstrakDAMSMEL.svg"
       inkscape:export-xdpi="96"
       inkscape:export-ydpi="96" />
  </g>
</svg>
