<?xml version="1.0" encoding="UTF-8" standalone="no"?>
<!-- Created with Inkscape (http://www.inkscape.org/) -->

<svg
   width="630.98047"
   height="100"
   viewBox="0 0 166.94691 26.458333"
   version="1.1"
   id="svg1"
   inkscape:version="1.3 (0e150ed6c4, 2023-07-21)"
   sodipodi:docname="AbstrakDAMSMEL.svg"
   xmlns:inkscape="http://www.inkscape.org/namespaces/inkscape"
   xmlns:sodipodi="http://sodipodi.sourceforge.net/DTD/sodipodi-0.dtd"
   xmlns="http://www.w3.org/2000/svg"
   xmlns:svg="http://www.w3.org/2000/svg">
  <sodipodi:namedview
     id="namedview1"
     pagecolor="#ffffff"
     bordercolor="#000000"
     borderopacity="0.25"
     inkscape:showpageshadow="2"
     inkscape:pageopacity="0.0"
     inkscape:pagecheckerboard="0"
     inkscape:deskcolor="#d1d1d1"
     inkscape:document-units="px"
     inkscape:zoom="1.0141844"
     inkscape:cx="2188.4581"
     inkscape:cy="3216.8708"
     inkscape:window-width="1920"
     inkscape:window-height="1009"
     inkscape:window-x="-8"
     inkscape:window-y="-8"
     inkscape:window-maximized="1"
     inkscape:current-layer="g1" />
  <defs
     id="defs1" />
  <g
     inkscape:label="Layer 1"
     inkscape:groupmode="layer"
     id="layer1"
     transform="translate(-434.87527,-883.95068)">
    <g
       id="g1"
       transform="matrix(0.74999994,0,0,0.74999994,106.11594,222.17095)">
      <g
         id="g2"
         inkscape:export-filename="..\Exported Files\AbstrakDAMSMEL\AbstrakDAMSMEL_logo_v1.svg"
         inkscape:export-xdpi="96"
         inkscape:export-ydpi="96"
         transform="matrix(0.66666667,0,0,0.66666667,146.11528,270.13958)">
        <path
           inkscape:connector-curvature="0"
           style="fill:#00d4aa;fill-opacity:1;fill-rule:nonzero;stroke:none;stroke-width:0.461407;stroke-linecap:round;stroke-linejoin:round;stroke-miterlimit:4;stroke-dasharray:none;stroke-opacity:1"
           d="m 507.03027,810.42449 a 2.0936614,2.0936614 0 0 0 -0.1762,0.008 7.6767584,7.6767584 0 0 0 -7.2362,5.68225 h -0.008 v 0 l -10.06292,37.55648 v 0 a 7.6767592,7.6767592 0 0 0 -0.2638,1.98744 7.6767592,7.6767592 0 0 0 7.67683,7.67675 7.6767592,7.6767592 0 0 0 7.41197,-5.69076 h 0.008 l 10.83764,-40.44648 h 0.008 a 3.4894361,3.4894361 0 0 1 3.36647,-2.58764 3.4894361,3.4894361 0 0 1 3.36924,2.58688 v 0 l 10.06316,37.55636 h -0.008 a 3.4894361,3.4894361 0 0 1 0.12306,0.90205 3.4894361,3.4894361 0 0 1 -3.4895,3.48951 3.4894361,3.4894361 0 0 1 -3.36646,-2.58739 h -0.008 l -1.7671,-6.59536 -5.0622,-18.89173 v 0 a 2.0936614,2.0936614 0 0 0 -2.02136,-1.55228 2.0936614,2.0936614 0 0 0 -2.09368,2.09372 2.0936614,2.0936614 0 0 0 0.072,0.54161 v 0 l 6.82944,25.48679 h 0.008 a 7.6767592,7.6767592 0 0 0 7.41236,5.69073 7.6767592,7.6767592 0 0 0 7.67672,-7.67668 7.6767592,7.6767592 0 0 0 -0.263,-1.98657 v 0 L 526.0037,816.11113 v 0 h -0.008 a 7.6767584,7.6767584 0 0 0 -7.40626,-5.69239 v 0 a 7.6767584,7.6767584 0 0 0 -7.4123,5.69103 h -0.008 l -9.0703,33.85104 -1.76708,6.59532 h -0.008 a 3.4894361,3.4894361 0 0 1 -3.36648,2.5874 3.4894361,3.4894361 0 0 1 -3.48942,-3.48947 3.4894361,3.4894361 0 0 1 0.1228,-0.90205 h -0.008 l 1.76868,-6.601 8.29458,-30.95543 h 0.008 a 3.4894361,3.4894361 0 0 1 3.36646,-2.58764 2.0936614,2.0936614 0 0 0 2.09368,-2.09368 2.0936614,2.0936614 0 0 0 -2.09368,-2.09368 z"
           id="path431-2-1-6-6-2-2-0-3-1-1-7-8-2-9-4-0-8-2-2-9-0-6-2-7-26-1-5-2-3"
           inkscape:export-filename="..\Exported Files\AbstrakDAMSMEL\AbstrakDAMSMEL_logo.svg"
           inkscape:export-xdpi="192"
           inkscape:export-ydpi="192" />
        <text
           xml:space="preserve"
           style="font-size:69.1721px;font-family:'TeX Gyre Adventor';-inkscape-font-specification:'TeX Gyre Adventor';text-align:center;text-anchor:middle;fill:#999999;stroke:none;stroke-width:43.2326;stroke-linecap:round;stroke-linejoin:round"
           x="602.8717"
           y="862.43616"
           id="text1-0-1"><tspan
             sodipodi:role="line"
             id="tspan1-5-1"
             style="font-style:normal;font-variant:normal;font-weight:normal;font-stretch:normal;font-family:'TeX Gyre Adventor';-inkscape-font-specification:'TeX Gyre Adventor';fill:#999999;stroke-width:43.2326"
             x="602.8717"
             y="862.43616">D   MSMEL</tspan></text>
      </g>
      <g
         id="g3">
        <path
           inkscape:connector-curvature="0"
           style="fill:#00d4aa;fill-opacity:1;fill-rule:nonzero;stroke:none;stroke-width:0.307605;stroke-linecap:round;stroke-linejoin:round;stroke-miterlimit:4;stroke-dasharray:none;stroke-opacity:1"
           d="m 484.13546,882.37691 a 1.3957743,1.3957743 0 0 0 -0.11746,0.005 5.117839,5.117839 0 0 0 -4.82414,3.78817 h -0.005 v 0 l -6.70862,25.03765 v 0 a 5.1178395,5.1178395 0 0 0 -0.17586,1.32496 5.1178395,5.1178395 0 0 0 5.11788,5.11783 5.1178395,5.1178395 0 0 0 4.94132,-3.79384 h 0.005 l 7.2251,-26.96432 h 0.005 a 2.3262907,2.3262907 0 0 1 2.24431,-1.72509 2.3262907,2.3262907 0 0 1 2.24616,1.72459 v 0 l 6.70878,25.03757 h -0.005 a 2.3262907,2.3262907 0 0 1 0.082,0.60137 2.3262907,2.3262907 0 0 1 -2.32633,2.32634 2.3262907,2.3262907 0 0 1 -2.24431,-1.72493 h -0.005 l -1.17807,-4.39691 -3.3748,-12.59448 v 0 a 1.3957743,1.3957743 0 0 0 -1.34757,-1.03486 1.3957743,1.3957743 0 0 0 -1.39579,1.39582 1.3957743,1.3957743 0 0 0 0.048,0.36107 v 0 l 4.55296,16.99119 h 0.005 a 5.1178395,5.1178395 0 0 0 4.94157,3.79382 5.1178395,5.1178395 0 0 0 5.11781,-5.11778 5.1178395,5.1178395 0 0 0 -0.17533,-1.32438 v 0 l -6.70865,-25.0377 v 0 h -0.005 a 5.117839,5.117839 0 0 0 -4.9375,-3.79493 v 0 a 5.117839,5.117839 0 0 0 -4.94154,3.79402 h -0.005 l -6.04687,22.56736 -1.17805,4.39688 h -0.005 a 2.3262907,2.3262907 0 0 1 -2.24433,1.72494 2.3262907,2.3262907 0 0 1 -2.32628,-2.32632 2.3262907,2.3262907 0 0 1 0.0819,-0.60136 h -0.005 l 1.17912,-4.40067 5.52972,-20.63695 h 0.005 a 2.3262907,2.3262907 0 0 1 2.24431,-1.7251 1.3957743,1.3957743 0 0 0 1.39579,-1.39578 1.3957743,1.3957743 0 0 0 -1.39579,-1.39579 z"
           id="path431-2-1-6-6-2-2-0-3-1-1-7-8-2-9-4-0-8-2-2-9-0-6-2-7-26-1-5-2-3-2"
           inkscape:export-filename="..\Exported Files\AbstrakDAMSMEL\AbstrakDAMSMEL_logo.svg"
           inkscape:export-xdpi="192"
           inkscape:export-ydpi="192" />
        <path
           id="text1-0-1-3"
           style="font-size:46.1147px;font-family:'TeX Gyre Adventor';-inkscape-font-specification:'TeX Gyre Adventor';text-align:center;text-anchor:middle;fill:#999999;stroke:none;stroke-width:28.8217;stroke-linecap:round;stroke-linejoin:round"
           d="m 561.42597,882.37305 c -5.48764,0 -9.45334,3.87386 -9.45334,9.17705 0,2.35184 0.876,4.61107 2.39779,6.04063 1.33732,1.29121 2.39792,1.79894 6.36378,2.99792 5.85656,1.79847 7.60884,3.41191 7.60884,7.14719 0,3.91975 -2.85878,6.77926 -6.73241,6.77926 -3.82752,0 -6.59446,-2.44404 -7.10172,-7.00939 h -3.64285 c 0.32281,6.13325 4.51899,10.14512 10.65224,10.14512 5.90268,0 10.28361,-4.28851 10.28361,-10.09895 0,-2.99746 -1.24532,-5.67237 -3.41271,-7.28638 -1.38344,-1.01452 -2.8129,-1.6603 -6.31762,-2.72094 -3.08968,-0.92229 -4.15021,-1.33685 -5.02639,-2.1208 -0.96841,-0.83006 -1.61368,-2.39809 -1.61368,-3.96599 0,-3.41249 2.48965,-5.94899 5.90213,-5.94899 3.4586,0 6.08749,2.39831 6.08749,6.08748 h 3.55051 c 0,-5.53376 -3.96579,-9.22321 -9.54567,-9.22321 z m -123.08018,0.59945 v 34.07888 h 9.17705 c 13.32713,0 19.59846,-7.10195 19.59846,-16.92437 0,-6.40994 -2.67472,-11.48229 -7.74733,-14.47974 -3.22803,-1.93682 -6.8245,-2.67477 -13.00386,-2.67477 z m 72.63089,0 v 34.07888 h 3.41271 v -30.34371 l 12.77373,30.34371 h 2.95107 l 12.81989,-30.34371 v 30.34371 h 3.41271 V 882.9725 h -5.30338 l -12.35894,29.00632 -12.40441,-29.00632 z m 65.34451,0 v 34.07888 h 3.41271 v -30.34371 l 12.77373,30.34371 h 2.95106 l 12.8199,-30.34371 v 30.34371 h 3.41271 V 882.9725 h -5.30338 l -12.35894,29.00632 -12.40441,-29.00632 z m 42.3795,0 v 34.07888 h 18.63039 v -3.08956 h -15.21837 v -12.58976 h 14.71125 v -3.08956 h -14.71125 v -12.22044 h 15.21837 v -3.08956 z m 24.71718,0 v 34.07888 h 17.52383 v -3.08956 H 646.83058 V 882.9725 Z m -201.65936,3.08956 h 4.7494 c 5.16485,0 8.39297,0.64592 10.97539,2.21382 3.91975,2.35184 6.17981,6.64071 6.17981,11.71332 0,4.47312 -1.75279,8.39223 -4.88859,10.92854 -2.72076,2.16738 -6.22559,3.04408 -12.26661,3.04408 h -4.7494 z" />
      </g>
    </g>
  </g>
</svg>
