<?xml version="1.0" encoding="UTF-8" standalone="no"?>
<!-- Created with Inkscape (http://www.inkscape.org/) -->

<svg
   width="946.47021"
   height="150"
   viewBox="0 0 250.42024 39.687499"
   version="1.1"
   id="svg1"
   inkscape:version="1.3 (0e150ed6c4, 2023-07-21)"
   sodipodi:docname="AbstrakDAMSMEL.svg"
   xmlns:inkscape="http://www.inkscape.org/namespaces/inkscape"
   xmlns:sodipodi="http://sodipodi.sourceforge.net/DTD/sodipodi-0.dtd"
   xmlns="http://www.w3.org/2000/svg"
   xmlns:svg="http://www.w3.org/2000/svg">
  <sodipodi:namedview
     id="namedview1"
     pagecolor="#ffffff"
     bordercolor="#000000"
     borderopacity="0.25"
     inkscape:showpageshadow="2"
     inkscape:pageopacity="0.0"
     inkscape:pagecheckerboard="0"
     inkscape:deskcolor="#d1d1d1"
     inkscape:document-units="px"
     inkscape:zoom="1.0141844"
     inkscape:cx="2188.4581"
     inkscape:cy="3216.8708"
     inkscape:window-width="1920"
     inkscape:window-height="1009"
     inkscape:window-x="-8"
     inkscape:window-y="-8"
     inkscape:window-maximized="1"
     inkscape:current-layer="g1" />
  <defs
     id="defs1" />
  <g
     inkscape:label="Layer 1"
     inkscape:groupmode="layer"
     id="layer1"
     transform="translate(-434.87531,-829.98499)">
    <g
       id="g1"
       transform="matrix(0.74999994,0,0,0.74999994,106.11594,222.17095)">
      <g
         id="g2">
        <path
           inkscape:connector-curvature="0"
           style="fill:#00d4aa;fill-opacity:1;fill-rule:nonzero;stroke:none;stroke-width:0.461407;stroke-linecap:round;stroke-linejoin:round;stroke-miterlimit:4;stroke-dasharray:none;stroke-opacity:1"
           d="m 507.03027,810.42449 a 2.0936614,2.0936614 0 0 0 -0.1762,0.008 7.6767584,7.6767584 0 0 0 -7.2362,5.68225 h -0.008 v 0 l -10.06292,37.55648 v 0 a 7.6767592,7.6767592 0 0 0 -0.2638,1.98744 7.6767592,7.6767592 0 0 0 7.67683,7.67675 7.6767592,7.6767592 0 0 0 7.41197,-5.69076 h 0.008 l 10.83764,-40.44648 h 0.008 a 3.4894361,3.4894361 0 0 1 3.36647,-2.58764 3.4894361,3.4894361 0 0 1 3.36924,2.58688 v 0 l 10.06316,37.55636 h -0.008 a 3.4894361,3.4894361 0 0 1 0.12306,0.90205 3.4894361,3.4894361 0 0 1 -3.4895,3.48951 3.4894361,3.4894361 0 0 1 -3.36646,-2.58739 h -0.008 l -1.7671,-6.59536 -5.0622,-18.89173 v 0 a 2.0936614,2.0936614 0 0 0 -2.02136,-1.55228 2.0936614,2.0936614 0 0 0 -2.09368,2.09372 2.0936614,2.0936614 0 0 0 0.072,0.54161 v 0 l 6.82944,25.48679 h 0.008 a 7.6767592,7.6767592 0 0 0 7.41236,5.69073 7.6767592,7.6767592 0 0 0 7.67672,-7.67668 7.6767592,7.6767592 0 0 0 -0.263,-1.98657 v 0 L 526.0037,816.11113 v 0 h -0.008 a 7.6767584,7.6767584 0 0 0 -7.40626,-5.69239 v 0 a 7.6767584,7.6767584 0 0 0 -7.4123,5.69103 h -0.008 l -9.0703,33.85104 -1.76708,6.59532 h -0.008 a 3.4894361,3.4894361 0 0 1 -3.36648,2.5874 3.4894361,3.4894361 0 0 1 -3.48942,-3.48947 3.4894361,3.4894361 0 0 1 0.1228,-0.90205 h -0.008 l 1.76868,-6.601 8.29458,-30.95543 h 0.008 a 3.4894361,3.4894361 0 0 1 3.36646,-2.58764 2.0936614,2.0936614 0 0 0 2.09368,-2.09368 2.0936614,2.0936614 0 0 0 -2.09368,-2.09368 z"
           id="path431-2-1-6-6-2-2-0-3-1-1-7-8-2-9-4-0-8-2-2-9-0-6-2-7-26-1-5-2-3"
           inkscape:export-filename="..\Exported Files\AbstrakDAMSMEL\AbstrakDAMSMEL_logo.svg"
           inkscape:export-xdpi="192"
           inkscape:export-ydpi="192" />
        <text
           xml:space="preserve"
           style="font-size:69.1721px;font-family:'TeX Gyre Adventor';-inkscape-font-specification:'TeX Gyre Adventor';text-align:center;text-anchor:middle;fill:#999999;stroke:none;stroke-width:43.2326;stroke-linecap:round;stroke-linejoin:round"
           x="602.8717"
           y="862.43616"
           id="text1-0-1"><tspan
             sodipodi:role="line"
             id="tspan1-5-1"
             style="font-style:normal;font-variant:normal;font-weight:normal;font-stretch:normal;font-family:'TeX Gyre Adventor';-inkscape-font-specification:'TeX Gyre Adventor';fill:#999999;stroke-width:43.2326"
             x="602.8717"
             y="862.43616">D   MSMEL</tspan></text>
      </g>
    </g>
  </g>
</svg>
